<svg xmlns="http://www.w3.org/2000/svg" xmlns:xlink="http://www.w3.org/1999/xlink" width="500" zoomAndPan="magnify" viewBox="0 0 375 374.999991" height="500" preserveAspectRatio="xMidYMid meet" version="1.0"><defs><g/><clipPath id="feb52fe891"><path d="M 152.242188 146.828125 L 222.757812 146.828125 L 222.757812 217.34375 L 152.242188 217.34375 Z M 152.242188 146.828125 " clip-rule="nonzero"/></clipPath><clipPath id="753c1f95b8"><path d="M 171.742188 146.828125 L 203.257812 146.828125 C 214.027344 146.828125 222.757812 155.558594 222.757812 166.328125 L 222.757812 197.84375 C 222.757812 208.613281 214.027344 217.34375 203.257812 217.34375 L 171.742188 217.34375 C 160.972656 217.34375 152.242188 208.613281 152.242188 197.84375 L 152.242188 166.328125 C 152.242188 155.558594 160.972656 146.828125 171.742188 146.828125 Z M 171.742188 146.828125 " clip-rule="nonzero"/></clipPath><clipPath id="757d97a4e0"><path d="M 160.132812 160.945312 L 174 160.945312 L 174 202.945312 L 160.132812 202.945312 Z M 160.132812 160.945312 " clip-rule="nonzero"/></clipPath><clipPath id="14ea7c2641"><path d="M 200 160.945312 L 213.703125 160.945312 L 213.703125 202.945312 L 200 202.945312 Z M 200 160.945312 " clip-rule="nonzero"/></clipPath></defs><g clip-path="url(#feb52fe891)"><g clip-path="url(#753c1f95b8)"><path fill="#000000" d="M 152.242188 146.828125 L 222.757812 146.828125 L 222.757812 217.34375 L 152.242188 217.34375 Z M 152.242188 146.828125 " fill-opacity="1" fill-rule="nonzero"/></g></g><g clip-path="url(#757d97a4e0)"><path fill="#ffffff" d="M 171.882812 165.644531 L 173.054688 165.644531 L 173.054688 160.945312 L 171.882812 160.945312 C 167.988281 160.945312 164.835938 164.101562 164.835938 167.992188 L 164.835938 176.214844 C 164.835938 176.953125 164.484375 177.648438 163.894531 178.09375 L 161.074219 180.207031 C 160.511719 180.628906 160.167969 181.285156 160.136719 181.988281 C 160.109375 182.691406 160.398438 183.371094 160.925781 183.839844 L 164.046875 186.613281 C 164.546875 187.058594 164.835938 187.699219 164.835938 188.371094 L 164.835938 196.179688 C 164.835938 200.070312 167.988281 203.226562 171.882812 203.226562 L 173.054688 203.226562 L 173.054688 198.527344 L 171.882812 198.527344 C 170.582031 198.527344 169.53125 197.476562 169.53125 196.179688 L 169.53125 188.371094 C 169.53125 186.355469 168.671875 184.441406 167.167969 183.101562 L 166.195312 182.238281 L 166.714844 181.851562 C 168.488281 180.519531 169.53125 178.429688 169.53125 176.214844 L 169.53125 167.992188 C 169.53125 166.695312 170.582031 165.644531 171.882812 165.644531 Z M 171.882812 165.644531 " fill-opacity="1" fill-rule="evenodd"/></g><g clip-path="url(#14ea7c2641)"><path fill="#ffffff" d="M 202.058594 165.644531 L 200.886719 165.644531 L 200.886719 160.945312 L 202.058594 160.945312 C 205.953125 160.945312 209.105469 164.101562 209.105469 167.992188 L 209.105469 176.214844 C 209.105469 176.953125 209.457031 177.648438 210.046875 178.09375 L 212.867188 180.207031 C 213.429688 180.628906 213.773438 181.285156 213.804688 181.988281 C 213.832031 182.691406 213.542969 183.371094 213.015625 183.839844 L 209.894531 186.613281 C 209.394531 187.058594 209.105469 187.699219 209.105469 188.371094 L 209.105469 196.179688 C 209.105469 200.070312 205.953125 203.226562 202.058594 203.226562 L 200.886719 203.226562 L 200.886719 198.527344 L 202.058594 198.527344 C 203.359375 198.527344 204.410156 197.476562 204.410156 196.179688 L 204.410156 188.371094 C 204.410156 186.355469 205.269531 184.441406 206.773438 183.101562 L 207.746094 182.238281 L 207.226562 181.851562 C 205.453125 180.519531 204.410156 178.429688 204.410156 176.214844 L 204.410156 167.992188 C 204.410156 166.695312 203.359375 165.644531 202.058594 165.644531 Z M 202.058594 165.644531 " fill-opacity="1" fill-rule="evenodd"/></g><g fill="#ffffff" fill-opacity="1"><g transform="translate(176.659579, 197.085969)"><g><path d="M 20.828125 -9.03125 C 20.828125 -6.0625 19.785156 -3.726562 17.703125 -2.03125 C 15.617188 -0.34375 13.0625 0.5 10.03125 0.5 C 6.195312 0.5 2.910156 -0.3125 0.171875 -1.9375 L 2.140625 -6.59375 C 4.328125 -4.550781 6.773438 -3.53125 9.484375 -3.53125 C 10.921875 -3.53125 12.148438 -3.921875 13.171875 -4.703125 C 14.191406 -5.484375 14.703125 -6.578125 14.703125 -7.984375 C 14.703125 -8.984375 14.363281 -9.875 13.6875 -10.65625 C 13.019531 -11.445312 12.1875 -12.066406 11.1875 -12.515625 C 10.195312 -12.960938 9.113281 -13.488281 7.9375 -14.09375 C 6.757812 -14.695312 5.671875 -15.304688 4.671875 -15.921875 C 3.679688 -16.535156 2.847656 -17.410156 2.171875 -18.546875 C 1.503906 -19.679688 1.171875 -20.988281 1.171875 -22.46875 C 1.171875 -25.351562 2.171875 -27.535156 4.171875 -29.015625 C 6.179688 -30.503906 8.851562 -31.25 12.1875 -31.25 C 13.4375 -31.25 14.890625 -30.992188 16.546875 -30.484375 C 18.203125 -29.984375 19.460938 -29.398438 20.328125 -28.734375 L 17.4375 -25.109375 C 15.863281 -26.515625 13.929688 -27.21875 11.640625 -27.21875 C 10.460938 -27.21875 9.445312 -26.910156 8.59375 -26.296875 C 7.738281 -25.679688 7.3125 -24.8125 7.3125 -23.6875 C 7.3125 -22.707031 7.644531 -21.84375 8.3125 -21.09375 C 8.988281 -20.351562 9.820312 -19.757812 10.8125 -19.3125 C 11.8125 -18.863281 12.894531 -18.332031 14.0625 -17.71875 C 15.238281 -17.101562 16.320312 -16.476562 17.3125 -15.84375 C 18.3125 -15.21875 19.144531 -14.316406 19.8125 -13.140625 C 20.488281 -11.960938 20.828125 -10.59375 20.828125 -9.03125 Z M 20.828125 -9.03125 "/></g></g></g></svg>